<svg width="90" height="32" viewBox="0 0 90 32" fill="none" xmlns="http://www.w3.org/2000/svg">
<path d="M39.716 15C39.416 15 39.146 14.94 38.906 14.82C38.666 14.688 38.546 14.496 38.546 14.244V3.948H35.9C35.672 3.948 35.492 3.846 35.36 3.642C35.228 3.426 35.162 3.174 35.162 2.886C35.162 2.634 35.222 2.4 35.342 2.184C35.462 1.956 35.648 1.842 35.9 1.842H43.514C43.766 1.842 43.952 1.956 44.072 2.184C44.192 2.4 44.252 2.634 44.252 2.886C44.252 3.174 44.186 3.426 44.054 3.642C43.934 3.846 43.754 3.948 43.514 3.948H40.886V14.244C40.886 14.496 40.76 14.688 40.508 14.82C40.268 14.94 40.004 15 39.716 15ZM46.4036 15C46.0676 15 45.7916 14.922 45.5756 14.766C45.3596 14.61 45.2516 14.436 45.2516 14.244V7.17C45.2516 6.954 45.3596 6.78 45.5756 6.648C45.7916 6.516 46.0676 6.45 46.4036 6.45C46.7276 6.45 47.0036 6.516 47.2316 6.648C47.4596 6.78 47.5736 6.954 47.5736 7.17V14.244C47.5736 14.436 47.4596 14.61 47.2316 14.766C47.0036 14.922 46.7276 15 46.4036 15ZM46.4036 4.542C46.0436 4.542 45.7376 4.428 45.4856 4.2C45.2456 3.972 45.1256 3.708 45.1256 3.408C45.1256 3.108 45.2456 2.844 45.4856 2.616C45.7376 2.388 46.0436 2.274 46.4036 2.274C46.7516 2.274 47.0456 2.388 47.2856 2.616C47.5376 2.844 47.6636 3.108 47.6636 3.408C47.6636 3.708 47.5376 3.972 47.2856 4.2C47.0456 4.428 46.7516 4.542 46.4036 4.542ZM50.4993 15C50.1633 15 49.8873 14.922 49.6713 14.766C49.4553 14.61 49.3473 14.436 49.3473 14.244V7.17C49.3473 6.954 49.4553 6.78 49.6713 6.648C49.8873 6.516 50.1633 6.45 50.4993 6.45C50.7753 6.45 51.0153 6.516 51.2193 6.648C51.4233 6.78 51.5253 6.954 51.5253 7.17V7.71C51.7293 7.362 52.0293 7.05 52.4253 6.774C52.8213 6.486 53.3193 6.342 53.9193 6.342C54.4353 6.342 54.8913 6.51 55.2873 6.846C55.6833 7.182 55.9773 7.614 56.1693 8.142C56.4813 7.53 56.8773 7.08 57.3573 6.792C57.8493 6.492 58.3533 6.342 58.8693 6.342C59.4213 6.342 59.9373 6.486 60.4173 6.774C60.9093 7.05 61.3053 7.464 61.6053 8.016C61.9173 8.556 62.0733 9.216 62.0733 9.996V14.244C62.0733 14.436 61.9593 14.61 61.7313 14.766C61.5033 14.922 61.2273 15 60.9033 15C60.6033 15 60.3333 14.922 60.0933 14.766C59.8653 14.61 59.7513 14.436 59.7513 14.244V9.996C59.7513 9.456 59.5953 9.048 59.2833 8.772C58.9833 8.496 58.6533 8.358 58.2933 8.358C57.9453 8.358 57.6213 8.502 57.3213 8.79C57.0213 9.066 56.8713 9.462 56.8713 9.978V14.262C56.8713 14.526 56.7453 14.718 56.4933 14.838C56.2533 14.946 55.9893 15 55.7013 15C55.4373 15 55.1793 14.946 54.9273 14.838C54.6753 14.718 54.5493 14.526 54.5493 14.262V9.996C54.5493 9.492 54.3993 9.096 54.0993 8.808C53.7993 8.52 53.4633 8.376 53.0913 8.376C52.7313 8.376 52.4013 8.514 52.1013 8.79C51.8133 9.066 51.6693 9.468 51.6693 9.996V14.244C51.6693 14.436 51.5493 14.61 51.3093 14.766C51.0813 14.922 50.8113 15 50.4993 15ZM67.8285 15.162C66.9765 15.162 66.2205 15.012 65.5605 14.712C64.9125 14.4 64.4025 13.968 64.0305 13.416C63.6585 12.852 63.4725 12.204 63.4725 11.472V9.942C63.4725 9.294 63.6465 8.7 63.9945 8.16C64.3545 7.608 64.8285 7.17 65.4165 6.846C66.0165 6.51 66.6825 6.342 67.4145 6.342C68.0745 6.342 68.6865 6.486 69.2505 6.774C69.8145 7.062 70.2705 7.458 70.6185 7.962C70.9665 8.466 71.1405 9.054 71.1405 9.726C71.1405 10.23 71.0565 10.596 70.8885 10.824C70.7205 11.052 70.5045 11.196 70.2405 11.256C69.9765 11.304 69.7125 11.328 69.4485 11.328H65.7945V11.598C65.7945 12.114 65.9865 12.534 66.3705 12.858C66.7665 13.17 67.2765 13.326 67.9005 13.326C68.2965 13.326 68.6265 13.272 68.8905 13.164C69.1545 13.044 69.3765 12.93 69.5565 12.822C69.7485 12.702 69.9345 12.642 70.1145 12.642C70.3905 12.642 70.6065 12.768 70.7625 13.02C70.9185 13.272 70.9965 13.488 70.9965 13.668C70.9965 13.872 70.8645 14.094 70.6005 14.334C70.3485 14.562 69.9825 14.76 69.5025 14.928C69.0345 15.084 68.4765 15.162 67.8285 15.162ZM65.7945 9.96H68.4225C68.6145 9.96 68.7525 9.93 68.8365 9.87C68.9205 9.798 68.9625 9.666 68.9625 9.474C68.9625 9.054 68.8005 8.712 68.4765 8.448C68.1645 8.184 67.7985 8.052 67.3785 8.052C66.9585 8.052 66.5865 8.178 66.2625 8.43C65.9505 8.682 65.7945 9.024 65.7945 9.456V9.96ZM39.716 31C39.416 31 39.146 30.94 38.906 30.82C38.666 30.688 38.546 30.496 38.546 30.244V19.948H35.9C35.672 19.948 35.492 19.846 35.36 19.642C35.228 19.426 35.162 19.174 35.162 18.886C35.162 18.634 35.222 18.4 35.342 18.184C35.462 17.956 35.648 17.842 35.9 17.842H43.514C43.766 17.842 43.952 17.956 44.072 18.184C44.192 18.4 44.252 18.634 44.252 18.886C44.252 19.174 44.186 19.426 44.054 19.642C43.934 19.846 43.754 19.948 43.514 19.948H40.886V30.244C40.886 30.496 40.76 30.688 40.508 30.82C40.268 30.94 40.004 31 39.716 31ZM44.7684 31C44.4444 31 44.1744 30.922 43.9584 30.766C43.7424 30.61 43.6344 30.436 43.6344 30.244V23.17C43.6344 22.954 43.7424 22.78 43.9584 22.648C44.1744 22.516 44.4444 22.45 44.7684 22.45C45.0564 22.45 45.3024 22.516 45.5064 22.648C45.7104 22.78 45.8124 22.954 45.8124 23.17V23.908C46.0044 23.524 46.2984 23.17 46.6944 22.846C47.0904 22.51 47.5344 22.342 48.0264 22.342H48.5844C48.8124 22.342 49.0104 22.444 49.1784 22.648C49.3464 22.84 49.4304 23.074 49.4304 23.35C49.4304 23.626 49.3464 23.866 49.1784 24.07C49.0104 24.274 48.8124 24.376 48.5844 24.376H48.0264C47.6784 24.376 47.3424 24.484 47.0184 24.7C46.7064 24.916 46.4484 25.228 46.2444 25.636C46.0524 26.032 45.9564 26.5 45.9564 27.04V30.244C45.9564 30.436 45.8424 30.61 45.6144 30.766C45.3864 30.922 45.1044 31 44.7684 31ZM52.1149 31.162C51.4789 31.162 50.9269 30.97 50.4589 30.586C50.0029 30.19 49.7749 29.584 49.7749 28.768C49.7749 28.084 49.9489 27.55 50.2969 27.166C50.6569 26.782 51.1489 26.512 51.7729 26.356C52.4089 26.2 53.1409 26.122 53.9689 26.122H54.7069V25.888C54.7069 25.624 54.6529 25.366 54.5449 25.114C54.4489 24.862 54.2869 24.652 54.0589 24.484C53.8309 24.316 53.5189 24.232 53.1229 24.232C52.6669 24.232 52.3129 24.28 52.0609 24.376C51.8209 24.46 51.6289 24.55 51.4849 24.646C51.3529 24.742 51.2149 24.79 51.0709 24.79C50.8189 24.79 50.6209 24.664 50.4769 24.412C50.3449 24.16 50.2789 23.902 50.2789 23.638C50.2789 23.386 50.4289 23.164 50.7289 22.972C51.0289 22.78 51.4009 22.63 51.8449 22.522C52.3009 22.402 52.7389 22.342 53.1589 22.342C54.0949 22.342 54.8449 22.51 55.4089 22.846C55.9729 23.182 56.3809 23.62 56.6329 24.16C56.8969 24.688 57.0289 25.252 57.0289 25.852V30.244C57.0289 30.46 56.9209 30.64 56.7049 30.784C56.4889 30.928 56.2189 31 55.8949 31C55.5949 31 55.3429 30.928 55.1389 30.784C54.9469 30.64 54.8509 30.46 54.8509 30.244V29.74C54.5269 30.112 54.1429 30.442 53.6989 30.73C53.2669 31.018 52.7389 31.162 52.1149 31.162ZM53.0509 29.434C53.3029 29.434 53.5549 29.356 53.8069 29.2C54.0589 29.032 54.2689 28.816 54.4369 28.552C54.6169 28.288 54.7069 28.006 54.7069 27.706V27.328H54.4369C54.0289 27.328 53.6449 27.352 53.2849 27.4C52.9369 27.448 52.6489 27.556 52.4209 27.724C52.2049 27.88 52.0969 28.126 52.0969 28.462C52.0969 28.798 52.1869 29.044 52.3669 29.2C52.5469 29.356 52.7749 29.434 53.0509 29.434ZM62.3696 31.162C61.4576 31.162 60.7136 31 60.1376 30.676C59.5616 30.352 59.1356 29.914 58.8596 29.362C58.5836 28.798 58.4456 28.168 58.4456 27.472V26.032C58.4456 25.348 58.5836 24.73 58.8596 24.178C59.1356 23.614 59.5556 23.17 60.1196 22.846C60.6956 22.51 61.4336 22.342 62.3336 22.342C62.8976 22.342 63.3956 22.414 63.8276 22.558C64.2716 22.69 64.6136 22.864 64.8536 23.08C65.1056 23.284 65.2316 23.506 65.2316 23.746C65.2316 23.962 65.1476 24.208 64.9796 24.484C64.8116 24.748 64.5896 24.88 64.3136 24.88C64.1816 24.88 64.0436 24.838 63.8996 24.754C63.7676 24.67 63.5936 24.586 63.3776 24.502C63.1616 24.418 62.8736 24.376 62.5136 24.376C61.9016 24.376 61.4576 24.526 61.1816 24.826C60.9056 25.114 60.7676 25.516 60.7676 26.032V27.472C60.7676 27.988 60.9056 28.396 61.1816 28.696C61.4696 28.984 61.9196 29.128 62.5316 29.128C62.9036 29.128 63.1916 29.086 63.3956 29.002C63.5996 28.906 63.7676 28.816 63.8996 28.732C64.0436 28.636 64.1876 28.588 64.3316 28.588C64.6556 28.588 64.9016 28.714 65.0696 28.966C65.2496 29.218 65.3396 29.458 65.3396 29.686C65.3396 29.926 65.2076 30.16 64.9436 30.388C64.6916 30.616 64.3376 30.802 63.8816 30.946C63.4376 31.09 62.9336 31.162 62.3696 31.162ZM67.6907 31C67.3667 31 67.0967 30.922 66.8807 30.766C66.6647 30.61 66.5567 30.436 66.5567 30.244V18.184C66.5567 17.968 66.6647 17.794 66.8807 17.662C67.0967 17.53 67.3667 17.464 67.6907 17.464C68.0267 17.464 68.3087 17.53 68.5367 17.662C68.7647 17.794 68.8787 17.968 68.8787 18.184V25.726L72.2807 22.54C72.4007 22.42 72.5507 22.36 72.7307 22.36C72.8987 22.36 73.0727 22.42 73.2527 22.54C73.4327 22.648 73.5767 22.786 73.6847 22.954C73.8047 23.122 73.8647 23.296 73.8647 23.476C73.8647 23.644 73.7987 23.788 73.6667 23.908L71.5427 25.834L74.2067 29.614C74.2907 29.746 74.3327 29.872 74.3327 29.992C74.3327 30.172 74.2607 30.352 74.1167 30.532C73.9727 30.7 73.7987 30.844 73.5947 30.964C73.3907 31.084 73.1927 31.144 73.0007 31.144C72.7607 31.144 72.5687 31.042 72.4247 30.838L70.0127 27.256L68.8787 28.282V30.244C68.8787 30.436 68.7647 30.61 68.5367 30.766C68.3087 30.922 68.0267 31 67.6907 31ZM79.2894 31.162C78.4374 31.162 77.6814 31.012 77.0214 30.712C76.3734 30.4 75.8634 29.968 75.4914 29.416C75.1194 28.852 74.9334 28.204 74.9334 27.472V25.942C74.9334 25.294 75.1074 24.7 75.4554 24.16C75.8154 23.608 76.2894 23.17 76.8774 22.846C77.4774 22.51 78.1434 22.342 78.8754 22.342C79.5354 22.342 80.1474 22.486 80.7114 22.774C81.2754 23.062 81.7314 23.458 82.0794 23.962C82.4274 24.466 82.6014 25.054 82.6014 25.726C82.6014 26.23 82.5174 26.596 82.3494 26.824C82.1814 27.052 81.9654 27.196 81.7014 27.256C81.4374 27.304 81.1734 27.328 80.9094 27.328H77.2554V27.598C77.2554 28.114 77.4474 28.534 77.8314 28.858C78.2274 29.17 78.7374 29.326 79.3614 29.326C79.7574 29.326 80.0874 29.272 80.3514 29.164C80.6154 29.044 80.8374 28.93 81.0174 28.822C81.2094 28.702 81.3954 28.642 81.5754 28.642C81.8514 28.642 82.0674 28.768 82.2234 29.02C82.3794 29.272 82.4574 29.488 82.4574 29.668C82.4574 29.872 82.3254 30.094 82.0614 30.334C81.8094 30.562 81.4434 30.76 80.9634 30.928C80.4954 31.084 79.9374 31.162 79.2894 31.162ZM77.2554 25.96H79.8834C80.0754 25.96 80.2134 25.93 80.2974 25.87C80.3814 25.798 80.4234 25.666 80.4234 25.474C80.4234 25.054 80.2614 24.712 79.9374 24.448C79.6254 24.184 79.2594 24.052 78.8394 24.052C78.4194 24.052 78.0474 24.178 77.7234 24.43C77.4114 24.682 77.2554 25.024 77.2554 25.456V25.96ZM85.1278 31C84.8038 31 84.5338 30.922 84.3178 30.766C84.1018 30.61 83.9938 30.436 83.9938 30.244V23.17C83.9938 22.954 84.1018 22.78 84.3178 22.648C84.5338 22.516 84.8038 22.45 85.1278 22.45C85.4158 22.45 85.6618 22.516 85.8658 22.648C86.0698 22.78 86.1718 22.954 86.1718 23.17V23.908C86.3638 23.524 86.6578 23.17 87.0538 22.846C87.4498 22.51 87.8938 22.342 88.3857 22.342H88.9438C89.1718 22.342 89.3698 22.444 89.5378 22.648C89.7058 22.84 89.7898 23.074 89.7898 23.35C89.7898 23.626 89.7058 23.866 89.5378 24.07C89.3698 24.274 89.1718 24.376 88.9438 24.376H88.3857C88.0378 24.376 87.7018 24.484 87.3778 24.7C87.0658 24.916 86.8078 25.228 86.6038 25.636C86.4118 26.032 86.3158 26.5 86.3158 27.04V30.244C86.3158 30.436 86.2018 30.61 85.9738 30.766C85.7458 30.922 85.4638 31 85.1278 31Z" fill="#415E72"/>
<path d="M16 27.7301C21.8959 27.7296 26.6753 22.9492 26.6748 17.0533C26.6744 14.0938 25.4473 11.2869 23.318 9.28209C22.7711 8.76715 22.4053 8.07216 22.4053 7.32098V7.32098C22.4053 5.56823 24.2316 4.45072 25.5781 5.57278C30.6921 9.83431 32.4884 17.1635 29.5036 23.456C25.9662 30.9137 17.0524 34.0918 9.59472 30.5544C2.13707 27.017 -1.04109 18.1031 2.49633 10.6455C3.4297 8.67719 4.7749 6.9512 6.42478 5.57467C7.77031 4.45206 9.59466 5.56757 9.59466 7.31991V7.31991C9.59466 8.07112 9.22851 8.76634 8.68091 9.28059C4.76762 12.9555 4.16258 19.0643 7.45839 23.459C9.4746 26.1478 12.6392 27.7301 16 27.7301Z" fill="#415E72"/>
<path d="M16 17.0543C14.8255 17.0588 13.8692 16.1106 13.8647 14.9361C13.8647 14.9326 13.8647 14.9291 13.8647 14.9256V2.10247C13.8827 0.923517 14.8535 -0.0178071 16.0325 0.00025566C17.1859 0.0177559 18.1172 0.949017 18.1347 2.10247V14.9256C18.1277 16.1005 17.1749 17.0508 16 17.0543Z" fill="#E04F5F"/>
</svg>
