<svg width="32" height="32" viewBox="0 0 32 32" fill="none" xmlns="http://www.w3.org/2000/svg">
<path d="M16 27.7301C21.8959 27.7296 26.6753 22.9492 26.6748 17.0533C26.6744 14.0938 25.4473 11.2869 23.318 9.28209C22.7711 8.76715 22.4053 8.07216 22.4053 7.32098V7.32098C22.4053 5.56823 24.2316 4.45072 25.5781 5.57278C30.6921 9.83431 32.4884 17.1635 29.5036 23.456C25.9662 30.9137 17.0524 34.0918 9.59472 30.5544C2.13707 27.017 -1.04109 18.1031 2.49633 10.6455C3.4297 8.67719 4.7749 6.9512 6.42478 5.57467C7.77031 4.45206 9.59466 5.56757 9.59466 7.31991V7.31991C9.59466 8.07112 9.22851 8.76634 8.68091 9.28059C4.76762 12.9555 4.16258 19.0643 7.45839 23.459C9.4746 26.1478 12.6392 27.7301 16 27.7301Z" fill="#415E72"/>
<path d="M16 17.0543C14.8255 17.0588 13.8692 16.1106 13.8647 14.9361C13.8647 14.9326 13.8647 14.9291 13.8647 14.9256V2.10247C13.8827 0.923517 14.8535 -0.0178071 16.0325 0.00025566C17.1859 0.0177559 18.1172 0.949017 18.1347 2.10247V14.9256C18.1277 16.1005 17.1749 17.0508 16 17.0543Z" fill="#E04F5F"/>
</svg>
